<mxfile host="app.diagrams.net" modified="2024-03-26T10:07:58.118Z" agent="Mozilla/5.0 (Windows NT 10.0; Win64; x64; rv:124.0) Gecko/20100101 Firefox/124.0" version="24.1.0" etag="q4KOPYRUHMQUzQqP44sg" type="github">
  <diagram name="Page-1" id="f-FT1rUhoASd2f0an_6X">
    <mxGraphModel>
      <root>
        <mxCell id="0" />
        <mxCell id="1" parent="0" />
      </root>
    </mxGraphModel>
  </diagram>
</mxfile>
